<?xml version="1.0" encoding="utf-8"?>
<!-- Generator: Adobe Illustrator 19.1.0, SVG Export Plug-In . SVG Version: 6.00 Build 0)  -->
<svg version="1.1" id="Layer_1" xmlns="http://www.w3.org/2000/svg" xmlns:xlink="http://www.w3.org/1999/xlink" x="0px" y="0px"
	 viewBox="0 0 21 33" style="enable-background:new 0 0 21 33;" xml:space="preserve">
<style type="text/css">
	.st0{fill:#999999;}
</style>
<path class="st0" d="M4,8L4,8C1.8,8,0,6.2,0,4v0c0-2.2,1.8-4,4-4h0c2.2,0,4,1.8,4,4v0C8,6.2,6.2,8,4,8z"/>
<path class="st0" d="M4,20.5L4,20.5c-2.2,0-4-1.8-4-4v0c0-2.2,1.8-4,4-4h0c2.2,0,4,1.8,4,4v0C8,18.7,6.2,20.5,4,20.5z"/>
<path class="st0" d="M4,33L4,33c-2.2,0-4-1.8-4-4v0c0-2.2,1.8-4,4-4h0c2.2,0,4,1.8,4,4v0C8,31.2,6.2,33,4,33z"/>
<path class="st0" d="M17,20.5L17,20.5c-2.2,0-4-1.8-4-4v0c0-2.2,1.8-4,4-4h0c2.2,0,4,1.8,4,4v0C21,18.7,19.2,20.5,17,20.5z"/>
<path class="st0" d="M17,33L17,33c-2.2,0-4-1.8-4-4v0c0-2.2,1.8-4,4-4h0c2.2,0,4,1.8,4,4v0C21,31.2,19.2,33,17,33z"/>
<path class="st0" d="M17,8L17,8c-2.2,0-4-1.8-4-4v0c0-2.2,1.8-4,4-4h0c2.2,0,4,1.8,4,4v0C21,6.2,19.2,8,17,8z"/>
</svg>
